<svg id="Capa_1" enable-background="new 0 0 512 512" height="512" viewBox="0 0 512 512" width="512" xmlns="http://www.w3.org/2000/svg"><g><path d="m403.989 346v31c0 57.891-47.109 105-105 105s-105-47.109-105-105v-61h-15-15v61c0 21.877 5.724 42.255 15 60.549 22.286 43.956 67.434 74.451 120 74.451 74.443 0 135-60.557 135-135v-31z" fill="#8ad7e6"/><path d="m298.989 512c74.443 0 135-60.557 135-135v-31h-30v31c0 57.891-47.109 105-105 105s-105-47.109-105-105v-61h-15v121.549c22.285 43.957 67.434 74.451 120 74.451z" fill="#5bb7e6"/><path d="m283.989 65.35-24.71 13.03 6.34 11.62c34.515 12.779 49.021 38.571 42.876 74.887-10.532 62.329-80.727 136.113-129.506 136.113-54.099 0-130.064-85.843-131-151-.412-28.635 14.771-49.167 43.966-60l7.692-25.095-25.659.278c-36.082 16.159-56.26 46.437-55.974 84.817.609 81.685 90.855 181 160.974 181 64.087 0 145.854-82.822 159.097-161.118 8.02-47.494-11.795-85.514-54.096-104.532z" fill="#ebf8ff"/><path d="m338.085 169.882c8.02-47.494-11.796-85.514-54.097-104.531l-24.71 13.03 6.341 11.619c34.515 12.779 49.021 38.571 42.876 74.887-10.532 62.329-80.727 136.113-129.506 136.113v30c64.086 0 145.854-82.822 159.096-161.118z" fill="#cce6ff"/><path d="m418.989 361c-41.353 0-75-33.647-75-75s33.647-75 75-75 75 33.647 75 75-33.648 75-75 75z" fill="#b8c7e6"/><circle cx="418.989" cy="286" fill="#cce6ff" r="45"/><path d="m403.989 271h30v30h-30z" fill="#384949"/><g><path d="m238.989 0c-24.814 0-45 20.186-45 45s20.186 45 45 45h26.631l18.369-24.65v-20.35c0-24.814-20.186-45-45-45z" fill="#5bb7e6"/><path d="m118.989 0c-25.721 0-45 21.671-45 45v20.184l17.966 24.816h27.034c24.814 0 45-20.186 45-45s-20.186-45-45-45z" fill="#8ad7e6"/></g></g></svg>